<svg id="Layer_1" xmlns="http://www.w3.org/2000/svg" viewBox="0 0 48 48"><style>.blue{fill:#0076bf}.green{fill:#058f2d}</style><path class="blue" d="M24 1.5c2.1 0 4.1.3 6 .8s3.7 1.3 5.4 2.3 3.2 2.1 4.6 3.5 2.5 2.9 3.5 4.6 1.7 3.5 2.3 5.4.8 3.9.8 6-.3 4.1-.8 6-1.3 3.7-2.3 5.4-2.1 3.2-3.5 4.6-2.9 2.5-4.6 3.5-3.5 1.7-5.4 2.3-3.9.8-6 .8-4.1-.3-6-.8-3.7-1.3-5.4-2.3-3.2-2.1-4.6-3.5-2.4-3.1-3.4-4.8-1.8-3.4-2.3-5.3-.8-3.9-.8-6 .3-4.1.8-6 1.3-3.7 2.3-5.4S6.7 9.4 8.1 8s2.9-2.5 4.6-3.5 3.5-1.7 5.4-2.3 3.8-.7 5.9-.7zm0 42c1.8 0 3.5-.2 5.2-.7s3.2-1.1 4.7-2 2.8-1.9 3.9-3 2.2-2.5 3-3.9 1.5-3 2-4.7.7-3.4.7-5.2-.2-3.5-.7-5.2-1.1-3.2-2-4.7-1.9-2.8-3-3.9-2.5-2.2-3.9-3-3-1.5-4.7-2-3.4-.7-5.2-.7-3.5.2-5.2.7-3.2 1.1-4.7 2-2.8 1.9-3.9 3-2.2 2.5-3 3.9-1.5 3-2 4.7-.7 3.4-.7 5.2.2 3.5.7 5.2 1.1 3.2 2 4.7 1.9 2.8 3 3.9 2.5 2.2 3.9 3 3 1.5 4.7 2 3.4.7 5.2.7zm5.5-31.8c-1.8-.8-3.7-1.2-5.6-1.2-1.2 0-2.4.2-3.6.5s-2.2.8-3.2 1.4-1.9 1.3-2.7 2.1-1.5 1.7-2.1 2.7-1 2.1-1.4 3.2-.5 2.3-.5 3.6c0 1.8.3 3.5 1 5.2s1.7 3.1 2.9 4.4l-2.1 2.1c-1.6-1.6-2.8-3.3-3.6-5.4S7.5 26.2 7.5 24c0-1.5.2-3 .6-4.4s.9-2.7 1.7-3.9 1.6-2.3 2.6-3.3 2.1-1.9 3.3-2.6 2.5-1.3 3.9-1.7 2.9-.6 4.4-.6c1.2 0 2.3.1 3.5.4s2.2.6 3.3 1.1l-1.3 2.7z"/><path class="green" d="M28 22c.3.6.5 1.3.5 2 0 .6-.1 1.2-.4 1.8s-.6 1-1 1.4-.9.7-1.4 1-1.1.4-1.8.4-1.2-.1-1.8-.4-1-.6-1.4-1-.7-.9-1-1.4-.4-1.1-.4-1.8.1-1.2.4-1.8.6-1 1-1.4.9-.7 1.4-1 1.1-.4 1.8-.4 1.3.2 2 .5l8.6-8.6 2.1 2.1L28 22zm-4 3.5c.4 0 .8-.1 1.1-.4s.4-.6.4-1.1-.1-.8-.4-1.1-.6-.4-1.1-.4-.8.1-1.1.4-.4.6-.4 1.1.1.8.4 1.1.7.4 1.1.4zM39 17.2c.5 1.1.8 2.2 1.1 3.3s.4 2.3.4 3.5c0 2.2-.4 4.3-1.2 6.3s-2 3.8-3.6 5.4l-2.1-2.1c1.3-1.3 2.2-2.7 2.9-4.3s1-3.3 1-5.1c0-1.9-.4-3.8-1.2-5.6l2.7-1.4z"/></svg>