<svg id="Layer_1" xmlns="http://www.w3.org/2000/svg" viewBox="0 0 48 48"><style>.green{fill:#058f2d}.gray{fill:#0076bf}</style><path class="gray" d="M24 0c2.2 0 4.3.3 6.4.9s4 1.4 5.7 2.4S39.5 5.6 41 7s2.7 3.1 3.8 4.9 1.8 3.7 2.4 5.7.8 4.2.8 6.4-.3 4.3-.9 6.4-1.4 4-2.4 5.7-2.3 3.4-3.7 4.9-3.1 2.7-4.9 3.8-3.7 1.8-5.7 2.4-4.2.8-6.4.8c-2.7 0-5.3-.4-7.7-1.3s-4.7-2.1-6.8-3.6-3.8-3.4-5.3-5.6S1.6 33 .9 30.4l2.9-.8c.6 2.3 1.6 4.3 2.9 6.2s2.8 3.5 4.6 4.9 3.8 2.4 5.9 3.2S21.7 45 24 45c1.9 0 3.8-.2 5.6-.8s3.5-1.2 5-2.1 3-2 4.3-3.3 2.4-2.7 3.3-4.3 1.6-3.2 2.1-5 .7-3.6.7-5.5-.2-3.8-.8-5.6-1.2-3.5-2.1-5-2-3-3.3-4.3-2.7-2.4-4.3-3.3-3.2-1.6-5-2.1S25.9 3 24 3c-2 0-4 .3-5.9.8s-3.7 1.4-5.3 2.4S9.6 8.6 8.3 10 5.9 13.2 5 15h7v3H0V6h3v6.4c1-1.9 2.3-3.6 3.8-5.2s3.2-2.8 5-3.9 3.8-1.9 5.8-2.5S21.8 0 24 0z"/><path class="green" d="M22.5 9.4h3v20.3h-3z"/><path class="green" d="M32.7 24.1L30.6 22 24 28.6 17.4 22l-2.1 2.1 8.7 8.7zM31.7 34.3H16.3v3h15.3v-3z"/></svg>