<svg width="206" height="104" viewBox="0 0 206 104" fill="none" xmlns="http://www.w3.org/2000/svg">
<g clip-path="url(#clip0)">
<path fill-rule="evenodd" clip-rule="evenodd" d="M184.125 56.125L187.25 53H202.875L206 56.125V71.75L202.875 74.875H187.25L184.125 71.75V56.125ZM187.25 56.125V71.75H202.875V56.125H187.25ZM156 84.25V65.5L159.125 62.375H174.75L177.875 65.5V81.125L176.312 82.6875L176.313 82.6876L177.875 81.125H193.5L196.625 84.25V99.875L193.5 103H177.875H174.75V103L174.75 103H159.125L156 99.875V84.25ZM159.125 99.875V84.25H174.75V99.875H159.125ZM177.875 99.875V84.25H193.5V99.875H177.875ZM159.125 81.125V65.5H174.75V81.125H159.125Z" fill="black"/>

</g>
<defs>
<clipPath id="clip0">
<rect width="206" height="104" fill="white"/>
</clipPath>
</defs>
</svg>
